<svg width="35" height="35" viewBox="0 0 35 35" fill="none" xmlns="http://www.w3.org/2000/svg">
<path d="M9.58398 1.60059C10.6152 3.81167 11.8163 5.95781 13.1645 8.01782L13.5143 8.46612L13.5127 6.07942L18.4 14.2935L19.2347 12.1968L23.5065 19.8239L24.2442 18.248L27.4557 22.7406C29.4172 24.1039 31.4642 25.3251 33.5782 26.3821C32.9238 22.7074 32.0077 19.0713 30.4222 15.5335L29.3705 18.0527L25.2129 10.7519L24.7118 12.243L20.7044 5.35345L20.0534 7.82149L16.146 3.03976L15.545 4.89072L9.58405 1.60059H9.58398ZM2.24937 2.09523C2.28341 2.1694 2.31841 2.24289 2.35272 2.31672L11.1403 14.805L10.1101 14.972L15.9777 18.9161L13.8381 19.5945L23.2937 25.4368L20.9426 26.5405L21.3117 26.7676C21.2639 26.6983 21.2165 26.6287 21.1683 26.5596C21.453 26.7793 21.7403 26.9948 22.0285 27.2083L29.5 31.8034C30.4968 32.2993 31.5091 32.7594 32.5364 33.1813C31.8497 31.7119 31.0585 30.2283 30.1773 28.7449L24.4753 20.7678L23.6081 22.6199L19.4301 15.16L18.628 17.1748L14.7934 10.7303L14.7944 12.1832L11.484 7.94085C8.43486 5.59934 5.31022 3.60256 2.24937 2.09523ZM1.3369 9.34543L3.34038 13.5612L0.986084 13.5102L6.54644 18.1375L4.14189 18.8057L12.6075 25.3352L9.55185 25.5922L19.6704 31.2993L17.4164 32.1219L25.4812 33.9729C24.7174 32.3633 23.8656 30.7916 22.9346 29.2654L18.2581 26.3892L20.6145 25.2829L10.7983 19.2177L13.0668 18.4985L6.71289 14.2278L8.81084 13.888C6.43569 12.1475 3.9321 10.6202 1.3369 9.34543Z" fill="#D7FB00"/>
</svg>
